<?xml version="1.0" encoding="UTF-8" standalone="no"?>
<!DOCTYPE svg PUBLIC "-//W3C//DTD SVG 1.1//EN"
 "http://www.w3.org/Graphics/SVG/1.1/DTD/svg11.dtd">
<!-- Generated by graphviz version 2.50.0 (0)
 -->
<!-- Title: G Pages: 1 -->
<svg width="147pt" height="250pt"
 viewBox="0.00 0.00 146.64 249.51" xmlns="http://www.w3.org/2000/svg" xmlns:xlink="http://www.w3.org/1999/xlink">
<g id="graph0" class="graph" transform="scale(1 1) rotate(0) translate(4 245.51)">
<title>G</title>
<polygon fill="white" stroke="transparent" points="-4,4 -4,-245.51 142.64,-245.51 142.64,4 -4,4"/>
<!-- 0 -->
<g id="node1" class="node">
<title>0</title>
<ellipse fill="black" stroke="black" cx="31.82" cy="-239.71" rx="1.8" ry="1.8"/>
</g>
<!-- 1 -->
<g id="node2" class="node">
<title>1</title>
<ellipse fill="none" stroke="black" cx="31.82" cy="-163.43" rx="29.9" ry="37.45"/>
<text text-anchor="middle" x="31.82" y="-174.73" font-family="Times,serif" font-size="14.00">0</text>
<text text-anchor="middle" x="31.82" y="-159.73" font-family="Times,serif" font-size="14.00">&#45;&#45;&#45;</text>
<text text-anchor="middle" x="31.82" y="-144.73" font-family="Times,serif" font-size="14.00">True</text>
</g>
<!-- 0&#45;&gt;1 -->
<g id="edge1" class="edge">
<title>0&#45;&gt;1</title>
<path fill="none" stroke="black" d="M31.82,-237.87C31.82,-234.83 31.82,-223.84 31.82,-211.26"/>
<polygon fill="black" stroke="black" points="35.32,-210.94 31.82,-200.94 28.32,-210.94 35.32,-210.94"/>
</g>
<!-- 1&#45;&gt;1 -->
<g id="edge2" class="edge">
<title>1&#45;&gt;1</title>
<path fill="none" stroke="black" d="M61.63,-168.49C71.57,-168.49 79.52,-166.8 79.52,-163.43 79.52,-161.32 76.41,-159.87 71.66,-159.08"/>
<polygon fill="black" stroke="black" points="71.85,-155.58 61.63,-158.37 71.36,-162.57 71.85,-155.58"/>
<text text-anchor="middle" x="83.02" y="-159.73" font-family="Times,serif" font-size="14.00">x</text>
</g>
<!-- 1&#45;&gt;1 -->
<g id="edge4" class="edge">
<title>1&#45;&gt;1</title>
<path fill="none" stroke="black" d="M60.87,-172.75C79.54,-175.19 97.52,-172.08 97.52,-163.43 97.52,-156.4 85.65,-153.03 71.18,-153.32"/>
<polygon fill="black" stroke="black" points="70.57,-149.86 60.87,-154.11 71.1,-156.84 70.57,-149.86"/>
<text text-anchor="middle" x="101.02" y="-159.73" font-family="Times,serif" font-size="14.00">y</text>
</g>
<!-- 2 -->
<g id="node3" class="node">
<title>2</title>
<ellipse fill="none" stroke="black" cx="31.82" cy="-37.48" rx="31.64" ry="37.45"/>
<text text-anchor="middle" x="31.82" y="-48.78" font-family="Times,serif" font-size="14.00">1</text>
<text text-anchor="middle" x="31.82" y="-33.78" font-family="Times,serif" font-size="14.00">&#45;&#45;&#45;</text>
<text text-anchor="middle" x="31.82" y="-18.78" font-family="Times,serif" font-size="14.00">False</text>
</g>
<!-- 1&#45;&gt;2 -->
<g id="edge3" class="edge">
<title>1&#45;&gt;2</title>
<path fill="none" stroke="black" d="M31.82,-125.91C31.82,-113.16 31.82,-98.68 31.82,-85.21"/>
<polygon fill="black" stroke="black" points="35.32,-85.16 31.82,-75.16 28.32,-85.16 35.32,-85.16"/>
<text text-anchor="middle" x="35.32" y="-96.75" font-family="Times,serif" font-size="14.00">z</text>
</g>
<!-- 2&#45;&gt;2 -->
<g id="edge5" class="edge">
<title>2&#45;&gt;2</title>
<path fill="none" stroke="black" d="M63.92,-41.35C73.85,-41.27 81.64,-39.98 81.64,-37.48 81.64,-35.95 78.75,-34.88 74.24,-34.25"/>
<polygon fill="black" stroke="black" points="74.12,-30.74 63.92,-33.61 73.69,-37.72 74.12,-30.74"/>
<text text-anchor="middle" x="85.14" y="-33.78" font-family="Times,serif" font-size="14.00">x</text>
</g>
<!-- 2&#45;&gt;2 -->
<g id="edge6" class="edge">
<title>2&#45;&gt;2</title>
<path fill="none" stroke="black" d="M63.21,-44.74C81.98,-46.36 99.64,-43.93 99.64,-37.48 99.64,-32.23 87.98,-29.65 73.54,-29.73"/>
<polygon fill="black" stroke="black" points="73.04,-26.25 63.21,-30.21 73.37,-33.24 73.04,-26.25"/>
<text text-anchor="middle" x="103.14" y="-33.78" font-family="Times,serif" font-size="14.00">z</text>
</g>
<!-- 2&#45;&gt;2 -->
<g id="edge7" class="edge">
<title>2&#45;&gt;2</title>
<path fill="none" stroke="black" d="M62.62,-47.18C89.35,-51.61 117.64,-48.38 117.64,-37.48 117.64,-27.94 95.98,-24.27 72.66,-26.47"/>
<polygon fill="black" stroke="black" points="72.08,-23.01 62.62,-27.77 72.98,-29.96 72.08,-23.01"/>
<text text-anchor="middle" x="121.14" y="-33.78" font-family="Times,serif" font-size="14.00">y</text>
</g>
</g>
</svg>
